REM DIRINDEX 1\2\4,1\2\5,1\2\6,1\3\7,1\3\8
REM DIRNAME cjc128,folder01,folder02,folder03,folder04,folder05,folder06,folder07
TITLE ""
FILE "034_Lesson 29_Output_Stage.mp3" MP3
  TRACK 01 AUDIO
    TITLE "0:"
    INDEX 01 00:00:00
  TRACK 02 AUDIO
    TITLE "8:cjc128_3818"
    INDEX 01 00:00:21
  TRACK 03 AUDIO
    TITLE "0:"
    INDEX 01 00:03:33
  TRACK 04 AUDIO
    TITLE "8:cjc128_3819"
    INDEX 01 00:04:35
  TRACK 05 AUDIO
    TITLE "0:"
    INDEX 01 00:06:22
  TRACK 06 AUDIO
    TITLE "7:cjc128_3820"
    INDEX 01 00:07:03
  TRACK 07 AUDIO
    TITLE "0:"
    INDEX 01 00:10:29
  TRACK 08 AUDIO
    TITLE "8:cjc128_3821"
    INDEX 01 00:14:09
  TRACK 09 AUDIO
    TITLE "0:"
    INDEX 01 00:15:74
  TRACK 10 AUDIO
    TITLE "7:cjc128_3822"
    INDEX 01 00:16:59
  TRACK 11 AUDIO
    TITLE "0:"
    INDEX 01 00:20:22
  TRACK 12 AUDIO
    TITLE "8:cjc128_3823"
    INDEX 01 00:24:27
  TRACK 13 AUDIO
    TITLE "0:"
    INDEX 01 00:26:22
  TRACK 14 AUDIO
    TITLE "7:cjc128_3824"
    INDEX 01 00:27:04
  TRACK 15 AUDIO
    TITLE "0:"
    INDEX 01 00:30:44
  TRACK 16 AUDIO
    TITLE "8:cjc128_3825"
    INDEX 01 00:34:45
  TRACK 17 AUDIO
    TITLE "0:"
    INDEX 01 00:36:38
  TRACK 18 AUDIO
    TITLE "7:cjc128_3826"
    INDEX 01 00:37:30
  TRACK 19 AUDIO
    TITLE "0:"
    INDEX 01 00:40:44
  TRACK 20 AUDIO
    TITLE "8:cjc128_3827"
    INDEX 01 00:44:28
  TRACK 21 AUDIO
    TITLE "0:"
    INDEX 01 00:46:17
  TRACK 22 AUDIO
    TITLE "7:cjc128_3828"
    INDEX 01 00:47:11
  TRACK 23 AUDIO
    TITLE "0:"
    INDEX 01 00:50:19
  TRACK 24 AUDIO
    TITLE "8:cjc128_3829"
    INDEX 01 00:53:60
  TRACK 25 AUDIO
    TITLE "0:"
    INDEX 01 00:55:53
  TRACK 26 AUDIO
    TITLE "7:cjc128_3830"
    INDEX 01 00:56:31
  TRACK 27 AUDIO
    TITLE "0:"
    INDEX 01 01:00:04
  TRACK 28 AUDIO
    TITLE "8:cjc128_3831"
    INDEX 01 01:04:41
  TRACK 29 AUDIO
    TITLE "0:"
    INDEX 01 01:06:30
  TRACK 30 AUDIO
    TITLE "7:cjc128_3832"
    INDEX 01 01:07:08
  TRACK 31 AUDIO
    TITLE "0:"
    INDEX 01 01:09:67
  TRACK 32 AUDIO
    TITLE "8:cjc128_3833"
    INDEX 01 01:13:47
  TRACK 33 AUDIO
    TITLE "0:"
    INDEX 01 01:15:40
  TRACK 34 AUDIO
    TITLE "7:cjc128_3834"
    INDEX 01 01:16:20
  TRACK 35 AUDIO
    TITLE "0:"
    INDEX 01 01:20:18
  TRACK 36 AUDIO
    TITLE "8:cjc128_3835"
    INDEX 01 01:24:49
  TRACK 37 AUDIO
    TITLE "0:"
    INDEX 01 01:26:15
  TRACK 38 AUDIO
    TITLE "7:cjc128_3836"
    INDEX 01 01:27:03
  TRACK 39 AUDIO
    TITLE "0:"
    INDEX 01 01:30:60
  TRACK 40 AUDIO
    TITLE "8:cjc128_3837"
    INDEX 01 01:35:27
  TRACK 41 AUDIO
    TITLE "0:"
    INDEX 01 01:37:22
  TRACK 42 AUDIO
    TITLE "7:cjc128_3838"
    INDEX 01 01:38:06
  TRACK 43 AUDIO
    TITLE "0:"
    INDEX 01 01:40:62
  TRACK 44 AUDIO
    TITLE "8:cjc128_3839"
    INDEX 01 01:44:09
  TRACK 45 AUDIO
    TITLE "0:"
    INDEX 01 01:46:02
  TRACK 46 AUDIO
    TITLE "7:cjc128_3840"
    INDEX 01 01:46:61
  TRACK 47 AUDIO
    TITLE "0:"
    INDEX 01 01:49:33
  TRACK 48 AUDIO
    TITLE "8:cjc128_3841"
    INDEX 01 01:52:38
  TRACK 49 AUDIO
    TITLE "0:"
    INDEX 01 01:54:29
  TRACK 50 AUDIO
    TITLE "7:cjc128_3842"
    INDEX 01 01:55:13
  TRACK 51 AUDIO
    TITLE "0:"
    INDEX 01 01:57:64
  TRACK 52 AUDIO
    TITLE "8:cjc128_3843"
    INDEX 01 02:01:35
  TRACK 53 AUDIO
    TITLE "0:"
    INDEX 01 02:03:22
  TRACK 54 AUDIO
    TITLE "7:cjc128_3844"
    INDEX 01 02:04:10
  TRACK 55 AUDIO
    TITLE "0:"
    INDEX 01 02:08:05
  TRACK 56 AUDIO
    TITLE "8:cjc128_3845"
    INDEX 01 02:12:35
  TRACK 57 AUDIO
    TITLE "0:"
    INDEX 01 02:14:26
  TRACK 58 AUDIO
    TITLE "7:cjc128_3846"
    INDEX 01 02:15:29
  TRACK 59 AUDIO
    TITLE "0:"
    INDEX 01 02:19:35
  TRACK 60 AUDIO
    TITLE "8:cjc128_3847"
    INDEX 01 02:23:74
  TRACK 61 AUDIO
    TITLE "0:"
    INDEX 01 02:25:65
  TRACK 62 AUDIO
    TITLE "7:cjc128_3848"
    INDEX 01 02:26:58
  TRACK 63 AUDIO
    TITLE "0:"
    INDEX 01 02:29:17
  TRACK 64 AUDIO
    TITLE "8:cjc128_3849"
    INDEX 01 02:32:29
  TRACK 65 AUDIO
    TITLE "0:"
    INDEX 01 02:34:40
  TRACK 66 AUDIO
    TITLE "7:cjc128_3850"
    INDEX 01 02:35:20
  TRACK 67 AUDIO
    TITLE "0:"
    INDEX 01 02:38:28
  TRACK 68 AUDIO
    TITLE "8:cjc128_3851"
    INDEX 01 02:41:73
  TRACK 69 AUDIO
    TITLE "0:"
    INDEX 01 02:43:59
  TRACK 70 AUDIO
    TITLE "7:cjc128_3852"
    INDEX 01 02:44:40
  TRACK 71 AUDIO
    TITLE "0:"
    INDEX 01 02:47:54
  TRACK 72 AUDIO
    TITLE "8:cjc128_3853"
    INDEX 01 02:51:33
  TRACK 73 AUDIO
    TITLE "0:"
    INDEX 01 02:53:26
  TRACK 74 AUDIO
    TITLE "7:cjc128_3854"
    INDEX 01 02:54:04
  TRACK 75 AUDIO
    TITLE "0:"
    INDEX 01 02:57:41
  TRACK 76 AUDIO
    TITLE "8:cjc128_3855"
    INDEX 01 03:01:43
  TRACK 77 AUDIO
    TITLE "0:"
    INDEX 01 03:02:72
  TRACK 78 AUDIO
    TITLE "7:cjc128_3856"
    INDEX 01 03:03:51
  TRACK 79 AUDIO
    TITLE "0:"
    INDEX 01 03:06:32
  TRACK 80 AUDIO
    TITLE "8:cjc128_3857"
    INDEX 01 03:09:50
  TRACK 81 AUDIO
    TITLE "0:"
    INDEX 01 03:11:37
  TRACK 82 AUDIO
    TITLE "7:cjc128_3858"
    INDEX 01 03:12:21
  TRACK 83 AUDIO
    TITLE "0:"
    INDEX 01 03:14:38
  TRACK 84 AUDIO
    TITLE "8:cjc128_3859"
    INDEX 01 03:17:22
  TRACK 85 AUDIO
    TITLE "0:"
    INDEX 01 03:19:07
  TRACK 86 AUDIO
    TITLE "7:cjc128_3860"
    INDEX 01 03:19:70
  TRACK 87 AUDIO
    TITLE "0:"
    INDEX 01 03:23:48
  TRACK 88 AUDIO
    TITLE "8:cjc128_3861"
    INDEX 01 03:27:66
  TRACK 89 AUDIO
    TITLE "0:"
    INDEX 01 03:29:53
  TRACK 90 AUDIO
    TITLE "7:cjc128_3862"
    INDEX 01 03:30:39
  TRACK 91 AUDIO
    TITLE "0:"
    INDEX 01 03:34:03
  TRACK 92 AUDIO
    TITLE "8:cjc128_3863"
    INDEX 01 03:38:15
  TRACK 93 AUDIO
    TITLE "0:"
    INDEX 01 03:40:02
  TRACK 94 AUDIO
    TITLE "7:cjc128_3864"
    INDEX 01 03:40:64
  TRACK 95 AUDIO
    TITLE "0:"
    INDEX 01 03:45:64
